<svg width="67" height="67" viewBox="0 0 67 67" fill="none" xmlns="http://www.w3.org/2000/svg">
<path d="M0 32.9634C0 14.5014 14.8645 -0.0418211 33.7062 9.0358e-05C51.4879 0.026285 66.2737 15.0987 66.237 33.1363C66.2003 51.1739 51.299 66.0106 33.1342 66.0106C28.7853 66.0133 24.4784 65.1607 20.4595 63.5013C16.4407 61.842 12.7885 59.4084 9.71163 56.3396C6.63476 53.2709 4.19345 49.627 2.52712 45.616C0.860783 41.6051 0.00206644 37.3057 0 32.9634Z" fill="url(#paint0_linear_212_17)"/>
<path d="M45.4121 9.19971V16.99C36.2667 17.9435 36.2247 17.9959 36.8491 27.0749H45.4226C45.0396 30.1449 44.7037 32.8901 44.3417 35.8135H36.7075V56.6434H28.155V35.8397H20.8093V27.1587H27.9241C28.58 21.6422 26.5704 15.6331 31.8698 11.4682C35.9676 8.23051 40.6899 9.58739 45.4121 9.19971Z" fill="#FEFEFE"/>
<defs>
<linearGradient id="paint0_linear_212_17" x1="99.728" y1="-78.9086" x2="-10.2774" y2="106.356" gradientUnits="userSpaceOnUse">
<stop stop-color="#543F22"/>
<stop offset="0.01" stop-color="#543F22"/>
<stop offset="0.27" stop-color="#816232"/>
<stop offset="0.37" stop-color="#816232"/>
<stop offset="0.61" stop-color="#CC9E66"/>
<stop offset="0.71" stop-color="#CC9E66"/>
<stop offset="0.92" stop-color="#F4D7A6"/>
<stop offset="1" stop-color="#F4D7A6"/>
</linearGradient>
</defs>
</svg>
