<svg width="67" height="67" viewBox="0 0 67 67" fill="none" xmlns="http://www.w3.org/2000/svg">
<path d="M0 32.9633C0 14.5014 14.8645 0 33.7114 0C51.4879 0.0261946 66.279 15.0986 66.2422 33.1362C66.2055 51.1738 51.299 66.0105 33.1342 66.0105C24.3516 66.0147 15.9269 62.5354 9.71317 56.338C3.49944 50.1406 0.0055647 41.7326 0 32.9633Z" fill="url(#paint0_linear_211_20)"/>
<path d="M53.3768 22.5535C53.388 21.2654 53.1423 19.988 52.6541 18.7957C52.1659 17.6033 51.4449 16.52 50.5332 15.6086C49.6215 14.6973 48.5372 13.9763 47.3436 13.4875C46.15 12.9988 44.8709 12.7521 43.5808 12.7619C40.0916 12.7043 36.592 12.7619 33.087 12.7619V12.7305C29.771 12.7305 26.4497 12.7305 23.1179 12.7305C17.0734 12.7776 12.7867 16.8011 12.6765 22.7787C12.5506 29.5893 12.5244 36.3999 12.6765 43.2105C12.8182 49.2458 17.0367 53.2379 23.0864 53.2693C29.8129 53.3007 36.5395 53.3007 43.266 53.2693C49.2003 53.2274 53.3244 49.1567 53.3821 43.242C53.452 36.3441 53.4503 29.4479 53.3768 22.5535ZM50.0293 43.4096C49.9716 47.2393 47.4058 49.8168 43.5756 49.8797C36.5028 49.995 29.4317 49.995 22.3623 49.8797C18.7052 49.8273 16.2654 47.2078 16.1605 43.483C16.0713 39.9991 16.1605 36.5152 16.1605 33.0051C16.1605 29.6051 16.1238 26.1945 16.1605 22.8049C16.2182 18.7028 18.7839 16.0729 22.845 16.0362C29.7395 15.9734 36.6357 15.9734 43.5336 16.0362C44.3894 16.0201 45.2398 16.1756 46.0343 16.4935C46.8288 16.8115 47.5513 17.2855 48.159 17.8874C48.7667 18.4892 49.2472 19.2068 49.5721 19.9975C49.8969 20.7882 50.0596 21.636 50.0503 22.4906C50.1517 29.4584 50.1447 36.4314 50.0293 43.4096Z" fill="#FEFEFE"/>
<path d="M32.8824 20.5628C26.1926 20.5156 20.4524 26.3256 20.5154 33.1362C20.5328 36.4528 21.869 39.6267 24.2301 41.9596C26.5912 44.2925 29.7837 45.5934 33.1054 45.576C36.427 45.5587 39.6057 44.2245 41.9422 41.867C44.2787 39.5095 45.5815 36.3219 45.5642 33.0052C45.5432 25.9903 40.0706 20.6099 32.8824 20.5628ZM32.8824 42.0424C31.0882 41.9976 29.3475 41.4234 27.8797 40.3921C26.412 39.3609 25.2829 37.9188 24.6349 36.2477C23.9869 34.5766 23.8489 32.7513 24.2385 31.002C24.628 29.2527 25.5276 27.6578 26.8237 26.4183C28.1199 25.1788 29.7546 24.3503 31.5217 24.0372C33.2888 23.7241 35.1092 23.9404 36.7533 24.6589C38.3975 25.3775 39.7917 26.566 40.7602 28.0746C41.7288 29.5833 42.2282 31.3445 42.1956 33.1362C42.1807 34.3336 41.9278 35.5161 41.4515 36.6151C40.9752 37.7141 40.285 38.7076 39.4211 39.5381C38.5571 40.3686 37.5365 41.0195 36.4185 41.453C35.3006 41.8865 34.1075 42.094 32.9086 42.0633L32.8824 42.0424Z" fill="#FEFEFE"/>
<path d="M45.3018 18.8079C44.0163 19.2427 43.1086 19.9028 43.203 21.2335C43.2975 22.5642 44.1842 23.1666 45.3018 23.3291C46.7185 23.1352 47.5212 22.386 47.5422 21.0973C47.5632 19.8085 46.6083 19.1693 45.3018 18.8079Z" fill="#FEFEFE"/>
<defs>
<linearGradient id="paint0_linear_211_20" x1="99.728" y1="-78.9087" x2="-10.2775" y2="106.356" gradientUnits="userSpaceOnUse">
<stop stop-color="#543F22"/>
<stop offset="0.01" stop-color="#543F22"/>
<stop offset="0.27" stop-color="#816232"/>
<stop offset="0.37" stop-color="#816232"/>
<stop offset="0.61" stop-color="#CC9E66"/>
<stop offset="0.71" stop-color="#CC9E66"/>
<stop offset="0.92" stop-color="#F4D7A6"/>
<stop offset="1" stop-color="#F4D7A6"/>
</linearGradient>
</defs>
</svg>
