<svg width="267" height="198" viewBox="0 0 267 198" fill="none" xmlns="http://www.w3.org/2000/svg">
<path d="M269.764 6.93155C256.505 34.1957 228.485 52.0791 198.019 52.0791H45.0589C33.7791 52.2105 23.0055 56.8122 15.0752 64.8862C7.1449 72.9601 2.69736 83.8551 2.69736 95.2078C2.69736 106.561 7.1449 117.456 15.0752 125.53C23.0055 133.603 33.7791 138.205 45.0589 138.337H195.436C211.482 138.271 227.171 143.096 240.438 152.178C253.706 161.259 263.929 174.172 269.764 189.214V6.93155Z" fill="#1D2755"/>
<path d="M268.329 12.7079C253.98 37.5459 227.084 53.5174 197.996 53.5174H45.0588C34.0721 53.5174 23.5354 57.9098 15.7666 65.7283C7.9978 73.5467 3.63336 84.1509 3.63336 95.2079C3.63336 106.265 7.9978 116.869 15.7666 124.687C23.5354 132.506 34.0721 136.898 45.0588 136.898H195.436C210.601 136.835 225.477 141.066 238.366 149.106C251.256 157.147 261.639 168.673 268.329 182.369V12.7079ZM271.199 0V198L270.361 195.285C265.396 179.204 255.449 165.143 241.976 155.158C228.503 145.172 212.209 139.786 195.476 139.786H45.0588C33.3138 139.785 22.0501 135.089 13.7451 126.731C5.44006 118.372 0.773682 107.037 0.772156 95.2165C0.77066 89.3623 1.91501 83.5651 4.13986 78.1559C6.36475 72.7468 9.62656 67.8317 13.739 63.6913C17.8515 59.5509 22.7341 56.2664 28.108 54.0252C33.4819 51.784 39.2418 50.63 45.0588 50.6293H197.996C213.854 50.6298 229.339 45.7914 242.408 36.7524C255.477 27.7135 265.515 14.899 271.199 0Z" fill="#F4D7A6"/>
</svg>
