<svg width="271" height="198" viewBox="0 0 271 198" fill="none" xmlns="http://www.w3.org/2000/svg">
<path d="M-0.556641 6.93155C12.7798 34.1957 40.9653 52.0791 71.6103 52.0791H225.47C236.816 52.2105 247.653 56.8122 255.63 64.8862C263.607 72.9601 268.081 83.8551 268.081 95.2078C268.081 106.561 263.607 117.456 255.63 125.53C247.653 133.603 236.816 138.205 225.47 138.337H74.2083C58.0686 138.271 42.2872 143.096 28.9417 152.178C15.5962 161.259 5.31215 174.172 -0.556641 189.214V6.93155Z" fill="#1D2755"/>
<path d="M0.886677 12.7079C15.3201 37.5459 42.374 53.5174 71.6334 53.5174H225.47C236.521 53.5174 247.12 57.9098 254.935 65.7283C262.749 73.5467 267.139 84.1509 267.139 95.2079C267.139 106.265 262.749 116.869 254.935 124.687C247.12 132.506 236.521 136.898 225.47 136.898H74.2083C58.9545 136.835 43.9906 141.066 31.0254 149.106C18.0602 157.147 7.61635 168.673 0.886677 182.369V12.7079ZM-2 0V198L-1.15709 195.285C3.83724 179.204 13.842 165.143 27.3946 155.158C40.9472 145.172 57.3369 139.786 74.1678 139.786H225.47C237.284 139.785 248.614 135.089 256.968 126.731C265.322 118.372 270.016 107.037 270.017 95.2165C270.019 89.3623 268.868 83.5651 266.63 78.1559C264.392 72.7468 261.111 67.8317 256.974 63.6913C252.838 59.5509 247.926 56.2664 242.521 54.0252C237.115 51.784 231.321 50.63 225.47 50.6293H71.6334C55.6824 50.6298 40.1061 45.7914 26.9602 36.7524C13.8143 27.7135 3.71671 14.899 -2 0Z" fill="#F4D7A6"/>
</svg>
