<svg width="254" height="83" viewBox="0 0 254 83" fill="none" xmlns="http://www.w3.org/2000/svg">
<path d="M41.4355 81.6554C30.8022 81.6554 20.6044 77.4247 13.0855 69.8941C5.56659 62.3635 1.34253 52.1499 1.34253 41.5C1.34253 30.8501 5.56659 20.6364 13.0855 13.1058C20.6044 5.57525 30.8022 1.3446 41.4355 1.3446H211.581C216.846 1.3446 222.059 2.38325 226.924 4.40125C231.788 6.41925 236.208 9.37707 239.931 13.1058C243.654 16.8346 246.607 21.2613 248.622 26.1332C250.637 31.0051 251.674 36.2267 251.674 41.5C251.674 46.7733 250.637 51.9949 248.622 56.8668C246.607 61.7387 243.654 66.1654 239.931 69.8941C236.208 73.6229 231.788 76.5807 226.924 78.5987C222.059 80.6167 216.846 81.6554 211.581 81.6554H41.4355Z" fill="#1D2755"/>
<path d="M211.581 2.68922C221.858 2.68922 231.714 6.7782 238.981 14.0566C246.248 21.3351 250.331 31.2067 250.331 41.5C250.331 51.7933 246.248 61.6649 238.981 68.9434C231.714 76.2218 221.858 80.3108 211.581 80.3108H41.4354C31.1582 80.3108 21.3019 76.2218 14.0348 68.9434C6.76765 61.6649 2.68503 51.7933 2.68503 41.5C2.68503 31.2067 6.76765 21.3351 14.0348 14.0566C21.3019 6.7782 31.1582 2.68922 41.4354 2.68922H211.581ZM211.581 0H41.4354C30.4461 0 19.9068 4.37231 12.1362 12.1551C4.36551 19.9378 0 30.4935 0 41.5C0 52.5065 4.36551 63.0622 12.1362 70.8449C19.9068 78.6277 30.4461 83 41.4354 83H211.581C222.57 83 233.109 78.6277 240.88 70.8449C248.651 63.0622 253.016 52.5065 253.016 41.5C253.016 30.4935 248.651 19.9378 240.88 12.1551C233.109 4.37231 222.57 0 211.581 0Z" fill="#F4D7A6"/>
</svg>
