<svg width="67" height="67" viewBox="0 0 67 67" fill="none" xmlns="http://www.w3.org/2000/svg">
<path d="M0 32.9634C0 14.5014 14.8645 -0.0418211 33.7114 9.0358e-05C51.4879 0.026285 66.279 15.0987 66.2422 33.1363C66.2055 51.1739 51.299 66.0106 33.1342 66.0106C28.7853 66.0133 24.4784 65.1607 20.4595 63.5013C16.4406 61.842 12.7885 59.4084 9.71162 56.3396C6.63475 53.2709 4.19346 49.627 2.52712 45.616C0.860791 41.6051 0.00206644 37.3057 0 32.9634Z" fill="url(#paint0_linear_212_30)"/>
<path d="M44.5044 29.6C49.1794 29.5266 49.1794 29.5266 50.0766 30.5796C49.2844 33.0734 46.1782 32.2613 44.6723 34.4984C45.9578 39.3182 49.3473 42.2363 54.463 43.5931C53.3664 46.396 50.6433 45.7882 48.6914 46.7627L47.6421 49.4188C43.5914 48.13 40.2964 49.7489 36.9594 51.9335C35.7894 52.7254 34.4059 53.1429 32.9925 53.1308C31.5792 53.1186 30.2031 52.6773 29.047 51.8654C25.8044 49.6127 22.5304 48.2401 18.4955 49.4188C18.1229 48.371 17.8449 47.6009 17.5353 46.7365C15.6307 45.9087 13.1279 46.2859 11.5066 43.7084C16.6171 42.4563 20.1168 39.5173 21.4757 34.6555C20.2322 32.2037 16.9686 33.1729 16.1711 30.5849C17.3936 27.6406 19.6865 30.3334 21.4862 29.5947C21.9794 27.6511 21.5334 25.5817 21.5911 23.5385C21.7538 17.7757 26.0982 13.3803 32.1269 13.0292C38.5439 12.6468 43.6702 16.4293 44.5412 22.1502C44.9294 24.5601 44.4467 26.9805 44.5044 29.6Z" fill="#FEFEFE"/>
<defs>
<linearGradient id="paint0_linear_212_30" x1="99.728" y1="-78.9086" x2="-10.2774" y2="106.356" gradientUnits="userSpaceOnUse">
<stop stop-color="#543F22"/>
<stop offset="0.01" stop-color="#543F22"/>
<stop offset="0.27" stop-color="#816232"/>
<stop offset="0.37" stop-color="#816232"/>
<stop offset="0.61" stop-color="#CC9E66"/>
<stop offset="0.71" stop-color="#CC9E66"/>
<stop offset="0.92" stop-color="#F4D7A6"/>
<stop offset="1" stop-color="#F4D7A6"/>
</linearGradient>
</defs>
</svg>
