<svg width="67" height="67" viewBox="0 0 67 67" fill="none" xmlns="http://www.w3.org/2000/svg">
<path d="M0 32.9634C0 14.5014 14.8645 -0.0418211 33.7114 9.0358e-05C51.4879 0.026285 66.279 15.0987 66.2422 33.1363C66.2055 51.1739 51.32 66.0106 33.1552 66.0106C28.8049 66.0147 24.4964 65.1632 20.4757 63.5045C16.455 61.8459 12.8009 59.4128 9.72212 56.344C6.64331 53.2752 4.20006 49.6309 2.53193 45.6193C0.863794 41.6076 0.00344356 37.3071 0 32.9634Z" fill="url(#paint0_linear_212_27)"/>
<path d="M28.4173 26.1947C28.4908 27.604 29.5611 27.9969 30.8624 28.086V35.6248C28.7636 35.4048 26.8328 35.5829 25.159 36.9136C24.0544 37.7753 23.2548 38.9673 22.8772 40.3152C22.4996 41.6631 22.5637 43.0963 23.0602 44.4052C23.8682 46.6947 25.6837 46.7261 27.5358 46.5899C28.8904 46.463 30.1653 45.8938 31.1631 44.9704C32.161 44.047 32.8261 42.8209 33.0556 41.4819C33.1779 40.4389 33.2183 39.3879 33.1762 38.3386C33.1762 28.9085 33.1762 19.5256 33.1762 9.93311H40.7475C40.7475 11.2847 41.7287 11.751 43.1611 11.5834C43.6858 16.5342 45.6167 20.1176 51.2833 20.3952C51.1994 22.0769 52.721 21.9669 53.7756 22.5327V29.6734C49.8719 30.1344 46.6818 28.3951 43.2818 26.5615C43.2818 31.4284 43.2083 36.0334 43.2818 40.6385C43.4077 46.8361 41.2145 51.7869 35.5111 54.6054C29.6766 57.4921 24.3352 56.3867 19.2457 52.3736C14.2664 48.4654 11.6377 43.7294 12.8865 37.4165C14.3084 30.1658 20.5364 25.7494 28.4173 26.1947Z" fill="#FEFEFE"/>
<defs>
<linearGradient id="paint0_linear_212_27" x1="99.749" y1="-78.9086" x2="-10.2565" y2="106.356" gradientUnits="userSpaceOnUse">
<stop stop-color="#543F22"/>
<stop offset="0.01" stop-color="#543F22"/>
<stop offset="0.27" stop-color="#816232"/>
<stop offset="0.37" stop-color="#816232"/>
<stop offset="0.61" stop-color="#CC9E66"/>
<stop offset="0.71" stop-color="#CC9E66"/>
<stop offset="0.92" stop-color="#F4D7A6"/>
<stop offset="1" stop-color="#F4D7A6"/>
</linearGradient>
</defs>
</svg>
