<svg width="67" height="67" viewBox="0 0 67 67" fill="none" xmlns="http://www.w3.org/2000/svg">
<path d="M0 32.9634C0 14.5014 14.8645 -0.0418211 33.7114 9.0358e-05C51.4879 0.026285 66.279 15.0987 66.2422 33.1363C66.2055 51.1739 51.299 66.0106 33.1342 66.0106C24.3516 66.0147 15.9269 62.5355 9.71317 56.3381C3.49945 50.1407 0.0055647 41.7327 0 32.9634Z" fill="url(#paint0_linear_212_20)"/>
<path d="M11.6638 27.8764C12.9598 28.0493 13.8937 28.9242 15.3366 28.6413C13.8727 26.7867 12.3301 25.0893 11.8946 22.7684C11.4088 20.4701 11.782 18.0737 12.944 16.0312C21.5175 23.4443 25.8462 25.587 33.1131 25.9851C32.7511 21.4273 33.9159 17.4247 38.2446 15.2034C42.5733 12.9821 46.5242 13.8204 50.1236 17.079C52.1489 16.8118 53.9696 15.8111 56.0264 15.0358C55.6853 17.1837 54.0168 18.1791 52.9989 19.7508C54.5415 20.0232 55.7378 19.1169 57.3066 18.7973C56.1943 20.9872 54.3736 22.1869 52.8887 23.7429C52.448 35.9024 47.5264 45.4111 36.0357 50.5871C27.6878 54.3382 16.9054 53.3952 10.6091 48.6592C15.5202 48.6959 19.8594 47.6114 23.7527 44.7091C18.0493 42.6449 16.8267 41.6548 15.2789 37.7989L19.0304 37.5475C14.4866 35.499 11.8107 32.6438 11.6638 27.8764Z" fill="#FEFEFE"/>
<defs>
<linearGradient id="paint0_linear_212_20" x1="99.728" y1="-78.9086" x2="-10.2775" y2="106.356" gradientUnits="userSpaceOnUse">
<stop stop-color="#543F22"/>
<stop offset="0.01" stop-color="#543F22"/>
<stop offset="0.27" stop-color="#816232"/>
<stop offset="0.37" stop-color="#816232"/>
<stop offset="0.61" stop-color="#CC9E66"/>
<stop offset="0.71" stop-color="#CC9E66"/>
<stop offset="0.92" stop-color="#F4D7A6"/>
<stop offset="1" stop-color="#F4D7A6"/>
</linearGradient>
</defs>
</svg>
