<svg width="67" height="67" viewBox="0 0 67 67" fill="none" xmlns="http://www.w3.org/2000/svg">
<path d="M0 32.9633C0.0314815 14.5013 14.8645 0 33.7114 0C51.4879 0.0261946 66.279 15.0986 66.2422 33.1362C66.2055 51.1738 51.299 66.0105 33.1342 66.0105C24.352 66.0133 15.9281 62.5336 9.71469 56.3365C3.50127 50.1394 0.00695523 41.7322 0 32.9633Z" fill="url(#paint0_linear_212_24)"/>
<path d="M48.4868 19.7823C42.0383 12.3116 32.0902 10.478 23.3436 15.1459C15.2476 19.468 10.8402 29.5005 14.067 38.3805C15.5677 42.4983 15.342 46.0031 14.1195 49.838C13.8433 50.8984 13.6209 51.972 13.4531 53.0547L23.3646 50.21L24.4139 50.7339C33.3337 54.8936 43.3658 52.4418 49.2318 44.6724C51.9512 41.0535 53.3585 36.6194 53.2232 32.0972C53.0878 27.5749 51.4177 23.2327 48.4868 19.7823ZM46.514 42.9227C42.264 48.4864 33.3967 52.2427 23.8211 46.4956L18.3433 47.9782C18.7945 45.9246 19.1828 44.1748 19.5763 42.404C13.5214 31.9261 18.0022 23.1771 23.9732 19.0227C30.684 14.3705 39.6247 15.3554 45.4855 21.3645C51.105 27.143 51.5825 36.2745 46.514 42.9227Z" fill="#FAFAFA"/>
<path d="M38.0349 35.3314L35.4902 37.7518C32.4103 36.1801 29.4772 34.5508 28.0816 31.1559L29.6924 29.1494C29.7448 26.9281 28.7584 25.2255 27.6408 23.46C24.8127 23.68 22.8346 25.6394 22.9186 27.8973C23.118 34.9018 32.5624 42.8597 39.567 41.9953C42.0908 41.6809 43.2399 40.2979 43.1192 37.7413C41.6553 36.442 40.1599 35.3209 38.0349 35.3314Z" fill="#FAFAFA"/>
<defs>
<linearGradient id="paint0_linear_212_24" x1="99.728" y1="-78.9087" x2="-10.2774" y2="106.356" gradientUnits="userSpaceOnUse">
<stop stop-color="#543F22"/>
<stop offset="0.01" stop-color="#543F22"/>
<stop offset="0.27" stop-color="#816232"/>
<stop offset="0.37" stop-color="#816232"/>
<stop offset="0.61" stop-color="#CC9E66"/>
<stop offset="0.71" stop-color="#CC9E66"/>
<stop offset="0.92" stop-color="#F4D7A6"/>
<stop offset="1" stop-color="#F4D7A6"/>
</linearGradient>
</defs>
</svg>
